<?xml version="1.0" encoding="utf-8"?>
<!-- Generator: Adobe Illustrator 16.0.0, SVG Export Plug-In . SVG Version: 6.00 Build 0)  -->
<!DOCTYPE svg PUBLIC "-//W3C//DTD SVG 1.1//EN" "http://www.w3.org/Graphics/SVG/1.1/DTD/svg11.dtd">
<svg version="1.1" id="Layer_1" xmlns="http://www.w3.org/2000/svg" xmlns:xlink="http://www.w3.org/1999/xlink" x="0px" y="0px"
	 width="240px" height="240px" viewBox="-20 -20 240 240" enable-background="new -20 -20 240 240" xml:space="preserve">
<g>
	<g>
		<ellipse fill="#E5F0FC" cx="146.615" cy="161.562" rx="48.182" ry="11.254"/>
		<g>
			<rect x="160.128" y="137.519" fill="#BFD9F2" width="35.283" height="35.298"/>
			<polygon fill="#9EC7F9" points="141.298,124.728 160.128,137.519 160.128,172.816 141.298,160.027 			"/>
			<polygon fill="#E5F0FC" points="160.128,137.519 141.298,124.728 176.597,124.728 195.413,137.519 			"/>
		</g>
	</g>
	<g>
		<path fill="#E5F0FC" d="M177.766,164.313c-5.036,0-9.141-4.105-9.141-9.15c0-5.036,4.104-9.144,9.141-9.144v4.857
			c-2.375,0-4.284,1.935-4.284,4.286c0,2.355,1.907,4.284,4.284,4.284V164.313z"/>
		<path fill="#E5F0FC" d="M177.766,159.447c5.045,0,9.15-4.106,9.15-9.141h-4.863c0,2.356-1.93,4.285-4.288,4.285L177.766,159.447
			L177.766,159.447z"/>
	</g>
</g>
<path fill="#E5F0FC" d="M101.064,220c44.493,0,80.8-5.285,80.8-11.732c0-6.471-36.307-11.755-80.8-11.755
	s-80.801,5.284-80.801,11.755C20.263,214.715,56.571,220,101.064,220L101.064,220z"/>
<polygon fill="#9EC7F9" points="80.718,131.985 80.718,203.776 83.065,204.573 83.718,208.368 76.679,211.389 77.024,213.185 
	88.311,211.837 88.535,198.857 97.472,135.904 115.146,166.209 106.206,194.736 101.736,200.104 112.023,206.021 112.797,204.797 
	108.166,198.857 109.9,197.083 112.921,198.411 125.776,165.536 110.351,128.539 "/>
<polygon fill="#2895F9" points="68.188,38.729 74.005,42.546 70.414,68.257 82.27,88.827 91.453,92.194 102.636,88.378 
	116.716,69.604 116.716,47.24 122.755,47.24 122.755,69.604 110.45,93.97 114.044,134.23 97.921,139.15 77.8,135.803 75.127,93.073 
	64.394,69.604 "/>
<polygon fill="#9EC7F9" points="83.964,69.707 84.841,84.705 92.331,86.827 100.513,81.011 99.84,64.911 90.432,65.565 "/>
<polygon fill="#2895F9" points="81.732,70.728 80.064,65.064 86.085,57.483 96.697,56.401 102.063,62.218 107.104,63.809 
	101.921,67.442 "/>
<rect x="86.085" y="-2.98" fill="#BFD9F2" width="46.954" height="46.976"/>
<polygon fill="#9EC7F9" points="61.025,-20 86.085,-2.98 86.085,43.995 61.025,26.975 "/>
<polygon fill="#E5F0FC" points="86.085,-2.98 61.025,-20 108.002,-20 133.039,-2.98 "/>
<g>
	<path fill="#E5F0FC" d="M109.558,32.69c-6.711,0-12.178-5.466-12.178-12.189c0-6.71,5.467-12.178,12.178-12.178v6.469
		c-3.167,0-5.709,2.578-5.709,5.709c0,3.141,2.542,5.708,5.709,5.708V32.69z"/>
	<path fill="#E5F0FC" d="M109.558,26.21c6.723,0,12.188-5.467,12.188-12.178h-6.478c0,3.143-2.569,5.708-5.71,5.708V26.21z"/>
</g>
<g>
	<g>
		<ellipse fill="#E5F0FC" cx="21.642" cy="119.624" rx="41.645" ry="9.728"/>
		<g>
			<rect x="33.321" y="98.843" fill="#BFD9F2" width="30.496" height="30.509"/>
			<polygon fill="#9EC7F9" points="17.046,87.788 33.321,98.843 33.321,129.352 17.046,118.298 			"/>
			<polygon fill="#E5F0FC" points="33.321,98.843 17.046,87.788 47.555,87.788 63.818,98.843 			"/>
		</g>
	</g>
	<g>
		<path fill="#E5F0FC" d="M48.565,122.002c-4.353,0-7.9-3.548-7.9-7.908c0-4.354,3.548-7.903,7.9-7.903v4.198
			c-2.053,0-3.703,1.672-3.703,3.705c0,2.035,1.648,3.702,3.703,3.702V122.002z"/>
		<path fill="#E5F0FC" d="M48.565,117.796c4.36,0,7.909-3.549,7.909-7.9h-4.204c0,2.037-1.668,3.704-3.706,3.704L48.565,117.796
			L48.565,117.796z"/>
	</g>
</g>
</svg>
