<?xml version="1.0" encoding="utf-8"?>
<!-- Generator: Adobe Illustrator 16.0.0, SVG Export Plug-In . SVG Version: 6.00 Build 0)  -->
<!DOCTYPE svg PUBLIC "-//W3C//DTD SVG 1.1//EN" "http://www.w3.org/Graphics/SVG/1.1/DTD/svg11.dtd">
<svg version="1.1" id="Layer_1" xmlns="http://www.w3.org/2000/svg" xmlns:xlink="http://www.w3.org/1999/xlink" x="0px" y="0px"
	 width="200px" height="200px" viewBox="0 0 200 200" enable-background="new 0 0 200 200" xml:space="preserve">
<g>
	<path fill-rule="evenodd" clip-rule="evenodd" fill="#E5F0FC" d="M83.397,179.473c32.225,0,58.507-5.223,58.507-11.629
		c0-6.407-26.282-11.647-58.507-11.647c-32.226,0-58.508,5.24-58.508,11.647C24.89,174.25,51.172,179.473,83.397,179.473
		L83.397,179.473z"/>
	<polygon fill-rule="evenodd" clip-rule="evenodd" fill="#9EC7F9" points="68.178,104.887 65.172,108.511 66.392,132.131 
		64.588,163.531 62.354,170.866 75.083,171.295 74.826,169.183 69.122,167.379 69.656,165.13 73.056,164.751 79.669,130.482 
		80.632,118.99 87.827,127.167 89.769,156.815 88.24,161.883 98.582,162.811 98.616,160.853 93.068,159.151 93.016,157.588 
		96.074,157.192 97.791,126.324 89.632,108.478 	"/>
	<polygon fill-rule="evenodd" clip-rule="evenodd" fill="#2895F9" points="73.297,55.381 65.172,108.511 89.632,108.478 
		91.557,64.777 84.376,55.381 	"/>
	<polygon fill-rule="evenodd" clip-rule="evenodd" fill="#9EC7F9" points="8.296,107.652 0,114.301 3.865,121.481 200,79.996 
		193.9,65.052 188.936,61.736 170.401,72.799 	"/>
	<polygon fill-rule="evenodd" clip-rule="evenodd" fill="#9EC7F9" points="75.512,32.002 74.138,48.596 82.297,49.986 
		88.653,46.534 90.73,29.374 	"/>
	<polygon fill-rule="evenodd" clip-rule="evenodd" fill="#2895F9" points="72.334,30.628 71.784,36.434 98.324,33.668 
		92.947,30.061 91.557,23.431 81.335,20.527 74.138,24.805 	"/>
	<polygon fill-rule="evenodd" clip-rule="evenodd" fill="#E5F0FC" points="2.49,106.278 188.936,61.736 194.741,75.29 0,114.301 	
		"/>
	<polygon fill-rule="evenodd" clip-rule="evenodd" fill="#2895F9" points="78.003,69.209 73.297,55.381 54.212,75.015 
		65.172,108.511 71.87,107.104 67.902,90.647 	"/>
</g>
</svg>
