<?xml version="1.0" encoding="utf-8"?>
<!-- Generator: Adobe Illustrator 16.0.0, SVG Export Plug-In . SVG Version: 6.00 Build 0)  -->
<!DOCTYPE svg PUBLIC "-//W3C//DTD SVG 1.1//EN" "http://www.w3.org/Graphics/SVG/1.1/DTD/svg11.dtd">
<svg version="1.1" id="Layer_1" xmlns="http://www.w3.org/2000/svg" xmlns:xlink="http://www.w3.org/1999/xlink" x="0px" y="0px"
	 width="180px" height="50px" viewBox="0 0 180 50" enable-background="new 0 0 180 50" xml:space="preserve">
<g>
	<path fill="#2895F9" d="M24.988,50C11.221,50,0,38.782,0,24.988C0,11.22,11.218,0,24.988,0v13.273
		c-6.494,0-11.715,5.29-11.715,11.715c0,6.446,5.219,11.715,11.715,11.715V50z"/>
	<path fill="#2895F9" d="M24.988,36.703C38.782,36.703,50,25.485,50,11.713H36.703c0,6.448-5.27,11.715-11.715,11.715V36.703z"/>
</g>
<g>
	<path fill="#1E2432" d="M77.177,21.806c-1.158-1.199-2.44-1.985-3.764-1.985c-3.641,0-5.833,2.854-5.833,5.955
		s2.192,5.956,5.833,5.956c1.53,0,2.937-0.661,3.847-1.861l3.31,3.558c-2.027,2.027-5.419,2.771-7.157,2.771
		c-5.999,0-10.798-4.178-10.798-10.424c0-6.245,4.799-10.423,10.798-10.423c2.523,0,5.295,0.91,7.198,3.02L77.177,21.806z"/>
	<path fill="#1E2432" d="M88.509,18.621h0.082c0.786-1.655,2.772-3.268,5.833-3.268c5.337,0,7.24,3.764,7.24,7.817v12.533H96.7
		V25.65c0-2.191-0.166-5.83-3.642-5.83c-3.267,0-4.549,2.399-4.549,5.045v10.837h-4.965V4.431h4.965V18.621z"/>
	<path fill="#1E2432" d="M119.695,32.973h-0.124c-1.406,2.234-3.723,3.227-6.37,3.227c-3.683,0-7.24-2.026-7.24-5.958
		c0-6.451,7.529-6.905,12.493-6.905h1.241v-0.537c0-2.441-1.902-3.723-4.55-3.723c-2.068,0-3.972,0.827-5.296,2.068l-2.605-2.606
		c2.191-2.234,5.295-3.186,8.439-3.186c8.48,0,8.48,6.123,8.48,8.934v11.417h-4.469V32.973z M119.406,26.808h-1.034
		c-2.73,0-7.446,0.208-7.446,3.063c0,1.82,1.861,2.605,3.475,2.605c3.393,0,5.006-1.778,5.006-4.55V26.808z"/>
	<path fill="#1E2432" d="M127.179,20.068v-4.22h4.097v-5.75h4.964v5.75h5.46v4.22h-5.46v8.685c0,1.986,0.579,3.227,2.771,3.227
		c0.869,0,2.069-0.166,2.688-0.619v4.177c-1.034,0.497-2.771,0.662-3.93,0.662c-5.254,0-6.494-2.357-6.494-7.033v-9.098H127.179z"/>
	<path fill="#1E2432" d="M157.995,32.973h-0.123c-1.407,2.234-3.724,3.227-6.371,3.227c-3.682,0-7.24-2.026-7.24-5.958
		c0-6.451,7.53-6.905,12.494-6.905h1.24v-0.537c0-2.441-1.901-3.723-4.55-3.723c-2.067,0-3.971,0.827-5.295,2.068l-2.606-2.606
		c2.192-2.234,5.296-3.186,8.439-3.186c8.481,0,8.481,6.123,8.481,8.934v11.417h-4.47V32.973z M157.707,26.808h-1.034
		c-2.73,0-7.446,0.208-7.446,3.063c0,1.82,1.861,2.605,3.474,2.605c3.394,0,5.007-1.778,5.007-4.55V26.808z"/>
	<path fill="#1E2432" d="M165.479,20.068v-4.22h4.096v-5.75h4.965v5.75H180v4.22h-5.46v8.685c0,1.986,0.579,3.227,2.771,3.227
		c0.869,0,2.069-0.166,2.689-0.619v4.177c-1.034,0.497-2.771,0.662-3.93,0.662c-5.254,0-6.495-2.357-6.495-7.033v-9.098H165.479z"/>
</g>
</svg>
