<?xml version="1.0" encoding="utf-8"?>
<!-- Generator: Adobe Illustrator 16.0.0, SVG Export Plug-In . SVG Version: 6.00 Build 0)  -->
<!DOCTYPE svg PUBLIC "-//W3C//DTD SVG 1.1//EN" "http://www.w3.org/Graphics/SVG/1.1/DTD/svg11.dtd">
<svg version="1.1" id="Layer_1" xmlns="http://www.w3.org/2000/svg" xmlns:xlink="http://www.w3.org/1999/xlink" x="0px" y="0px"
	 width="190px" height="50px" viewBox="0 0 190 50" enable-background="new 0 0 190 50" xml:space="preserve">
<g>
	<path fill-rule="evenodd" clip-rule="evenodd" fill="#2E5BFF" d="M24.988,50C11.219,50,0,38.781,0,24.988
		C0,11.219,11.219,0,24.988,0v13.273c-6.495,0-11.715,5.29-11.715,11.715c0,6.447,5.22,11.715,11.715,11.715V50z"/>
	<path fill-rule="evenodd" clip-rule="evenodd" fill="#2E5BFF" d="M24.988,36.703C38.781,36.703,50,25.485,50,11.714H36.703
		c0,6.448-5.268,11.715-11.715,11.715V36.703z"/>
</g>
<g>
	<path fill="#FFFFFF" d="M59.235,24.083v-0.067c0-6.763,5.097-12.301,12.403-12.301c4.485,0,7.169,1.496,9.378,3.67l-3.33,3.84
		c-1.835-1.666-3.704-2.685-6.082-2.685c-4.01,0-6.898,3.33-6.898,7.408v0.068c0,4.077,2.82,7.476,6.898,7.476
		c2.718,0,4.383-1.087,6.252-2.786l3.33,3.363c-2.447,2.617-5.166,4.249-9.752,4.249C64.435,36.317,59.235,30.914,59.235,24.083z"/>
	<path fill="#FFFFFF" d="M84.219,12.122h5.233v9.413h9.65v-9.413h5.233v23.788h-5.233v-9.548h-9.65v9.548h-5.233V12.122z"/>
	<path fill="#FFFFFF" d="M117.053,11.952h4.825l10.194,23.957h-5.472l-2.174-5.336h-10.059l-2.174,5.336h-5.335L117.053,11.952z
		 M122.558,25.953l-3.16-7.714l-3.16,7.714H122.558z"/>
	<path fill="#FFFFFF" d="M137.075,16.948h-7.238v-4.826h19.71v4.826h-7.238v18.961h-5.233V16.948z"/>
	<path fill="#FFFFFF" d="M157.507,11.952h4.825l10.192,23.957h-5.47l-2.174-5.336h-10.059l-2.175,5.336h-5.335L157.507,11.952z
		 M163.012,25.953l-3.16-7.714l-3.16,7.714H163.012z"/>
	<path fill="#FFFFFF" d="M177.528,16.948h-7.238v-4.826H190v4.826h-7.236v18.961h-5.235V16.948z"/>
</g>
</svg>
