<?xml version="1.0" encoding="utf-8"?>
<!-- Generator: Adobe Illustrator 16.0.0, SVG Export Plug-In . SVG Version: 6.00 Build 0)  -->
<!DOCTYPE svg PUBLIC "-//W3C//DTD SVG 1.1//EN" "http://www.w3.org/Graphics/SVG/1.1/DTD/svg11.dtd">
<svg version="1.1" id="Layer_1" xmlns="http://www.w3.org/2000/svg" xmlns:xlink="http://www.w3.org/1999/xlink" x="0px" y="0px"
	 width="300px" height="400px" viewBox="0 0 300 400" enable-background="new 0 0 300 400" xml:space="preserve">
<g>
	<linearGradient id="SVGID_1_" gradientUnits="userSpaceOnUse" x1="-17.7373" y1="339.3901" x2="173.7605" y2="248.9339">
		<stop  offset="0" style="stop-color:#41697B"/>
		<stop  offset="1" style="stop-color:#1D2332"/>
	</linearGradient>
	<path fill-rule="evenodd" clip-rule="evenodd" fill="url(#SVGID_1_)" d="M42.438,209.911c10.06,20.395,20.406,40.791,30.446,60.893
		c2.668,5.02-15.071,7.381-12.708,12.412c-23.349-3.555-28.368,28.664-8.573,33.104l128.87,30.141
		c26.007,4.439,44.336-19.5,57.338-50.832c-21.281-21.576-49.06-33.695-80.981-39.906c-7.688-15.365-15.375-30.74-23.053-46.4
		c-2.668-5.611-7.983-7.984-14.785-7.984c-22.462,0-44.925,0-67.388,0C43.333,200.747,40.076,204.299,42.438,209.911L42.438,209.911
		z"/>
	<linearGradient id="SVGID_2_" gradientUnits="userSpaceOnUse" x1="219.9883" y1="200.6108" x2="125.6827" y2="191.9501">
		<stop  offset="0" style="stop-color:#D1EBFB"/>
		<stop  offset="1" style="stop-color:#6C9CB4"/>
	</linearGradient>
	<path fill-rule="evenodd" clip-rule="evenodd" fill="url(#SVGID_2_)" d="M237.811,295.627
		c16.853-52.613,33.99-105.521,50.843-158.13c-40.497-48.179-120.593-31.332-136.854,5.025l-24.826,60.291
		c2.953,1.182,5.315,3.258,6.802,6.508c7.678,15.66,15.366,31.035,23.053,46.4C188.751,261.932,216.529,274.051,237.811,295.627
		L237.811,295.627z"/>
	<path fill-rule="evenodd" clip-rule="evenodd" fill="#FF6766" d="M40.076,227.944c4.134,10.641,22.178,4.725,29.56,0.885
		c7.383-3.848,3.839-12.707-2.658-13.592C57.223,214.34,32.398,209.321,40.076,227.944L40.076,227.944z"/>
	<linearGradient id="SVGID_3_" gradientUnits="userSpaceOnUse" x1="209.6748" y1="133.2446" x2="211.1183" y2="87.0541">
		<stop  offset="0" style="stop-color:#EC8C8E"/>
		<stop  offset="1" style="stop-color:#EB6667"/>
	</linearGradient>
	<path fill-rule="evenodd" clip-rule="evenodd" fill="url(#SVGID_3_)" d="M196.725,86.661c4.439,15.666,4.439,20.986-0.296,39.015
		c-4.134,11.231,14.195,8.863,22.168,0c3.554-4.139,6.507-10.346,6.212-17.733c-2.658-7.983-4.726-20.986-7.394-29.265
		C210.624,81.34,203.527,83.998,196.725,86.661L196.725,86.661z"/>
	<linearGradient id="SVGID_4_" gradientUnits="userSpaceOnUse" x1="216.6855" y1="87.7222" x2="205.138" y2="44.8999">
		<stop  offset="0" style="stop-color:#EC8C8E"/>
		<stop  offset="1" style="stop-color:#EB6667"/>
	</linearGradient>
	<path fill-rule="evenodd" clip-rule="evenodd" fill="url(#SVGID_4_)" d="M172.194,44.983c0.887,10.05,2.658,18.919,4.735,26.307
		c12.708,38.719,47.879,36.652,50.831-7.683c10.937-0.891,18.919-18.919,8.278-22.462c3.249-31.922-33.398-37.243-49.945-26.897
		C174.262,19.567,172.194,31.389,172.194,44.983L172.194,44.983z"/>
	<path fill-rule="evenodd" clip-rule="evenodd" fill="#1E2432" d="M236.039,41.145c3.839-13.895,0-26.307-8.573-33.104
		c-39.601-30.15-83.935,33.989-55.271,36.943c18.329,0.295,31.333-14.184,41.973-10.937c6.212,1.477,7.393,13.008,7.688,24.535
		c-0.295,3.543,4.431,4.134,4.726-1.186C226.875,49.417,229.237,39.958,236.039,41.145L236.039,41.145z"/>
	<linearGradient id="SVGID_5_" gradientUnits="userSpaceOnUse" x1="253.0273" y1="144.1304" x2="217.4224" y2="231.6993">
		<stop  offset="0" style="stop-color:#D1EBFB"/>
		<stop  offset="1" style="stop-color:#6C9CB4"/>
	</linearGradient>
	<path fill-rule="evenodd" clip-rule="evenodd" fill="url(#SVGID_5_)" d="M250.814,170.896c-0.591,10.64-1.477,23.353-1.771,33.995
		c-19.511-9.164-44.926-13.013-64.731-19.215c-3.248,1.771-4.134,3.544-7.382,5.021c23.939,26.901,58.224,41.087,90.737,57.042
		c16.547-33.99,30.74-97.534,20.986-110.242C269.734,137.202,253.777,145.77,250.814,170.896L250.814,170.896z"/>
	<path fill-rule="evenodd" clip-rule="evenodd" fill="#FF6766" d="M145.007,201.926c-3.248,2.373,0,6.803,3.544,4.736
		c3.249-1.771,6.507-3.555,9.755-5.326c6.211,5.326,13.298,8.574,20.691,5.916c17.137-7.096,8.278-26.897-3.249-23.052
		C165.108,187.448,155.058,194.249,145.007,201.926L145.007,201.926z"/>
	<linearGradient id="SVGID_6_" gradientUnits="userSpaceOnUse" x1="3.1577" y1="269.4585" x2="191.1143" y2="269.4585">
		<stop  offset="0" style="stop-color:#41697B"/>
		<stop  offset="1" style="stop-color:#1D2332"/>
	</linearGradient>
	<path fill-rule="evenodd" clip-rule="evenodd" fill="url(#SVGID_6_)" d="M35.351,238.879c-42.859-7.688-41.382,36.057-4.725,40.191
		c52.898,7.393,105.807,14.785,159.011,21.871c0.59-5.314,0.886-10.936,1.477-16.547C139.396,269.315,87.364,253.95,35.351,238.879
		L35.351,238.879z"/>
	<linearGradient id="SVGID_7_" gradientUnits="userSpaceOnUse" x1="107.1685" y1="340.6362" x2="271.7223" y2="247.2928">
		<stop  offset="0" style="stop-color:#41697B"/>
		<stop  offset="1" style="stop-color:#1D2332"/>
	</linearGradient>
	<path fill-rule="evenodd" clip-rule="evenodd" fill="url(#SVGID_7_)" d="M125.793,314.547l47.583-30.152
		c27.493-15.965,41.382,29.551,4.145,30.447L125.793,314.547z"/>
</g>
<ellipse fill-rule="evenodd" clip-rule="evenodd" fill="#E4EFEF" cx="150" cy="388.33" rx="83.646" ry="11.67"/>
</svg>
