<?xml version="1.0" encoding="utf-8"?>
<!-- Generator: Adobe Illustrator 16.0.0, SVG Export Plug-In . SVG Version: 6.00 Build 0)  -->
<!DOCTYPE svg PUBLIC "-//W3C//DTD SVG 1.1//EN" "http://www.w3.org/Graphics/SVG/1.1/DTD/svg11.dtd">
<svg version="1.1" id="Layer_1" xmlns="http://www.w3.org/2000/svg" xmlns:xlink="http://www.w3.org/1999/xlink" x="0px" y="0px"
	 width="300px" height="371.785px" viewBox="0 0 300 371.785" enable-background="new 0 0 300 371.785" xml:space="preserve">
<g>
	<path fill-rule="evenodd" clip-rule="evenodd" fill="#CCD2E0" d="M235.831,212.695c12.161-37.988,24.543-76.192,36.704-114.183
		c-29.234-34.785-87.077-22.621-98.813,3.628l-17.925,43.539c2.132,0.853,3.838,2.349,4.69,4.694
		c5.552,11.312,11.103,22.411,16.646,33.513C200.398,188.365,220.464,197.122,235.831,212.695L235.831,212.695z"/>
	<path fill-rule="evenodd" clip-rule="evenodd" fill="#1E2432" d="M94.756,150.804c9.176,18.352,18.356,36.708,27.532,54.847
		L64.235,349.292l-37.774,25.396l49.939-4.911l2.563-13.015c20.275-39.277,40.55-78.334,60.825-117.598
		c18.569,2.559,36.921,5.117,55.494,7.677c18.778,3.205,30.947-11.529,40.55-34.146c-15.367-15.573-35.433-24.33-58.696-28.808
		c-5.544-11.102-11.095-22.201-16.646-33.513c-1.706-4.055-5.544-5.761-10.456-5.761c-16.22,0-32.439,0-48.66,0
		C95.182,144.187,92.837,146.746,94.756,150.804L94.756,150.804z"/>
	<path fill-rule="evenodd" clip-rule="evenodd" fill="#FF6766" d="M92.837,163.822c3.198,7.683,16.22,3.415,21.341,0.64
		c5.548-2.776,2.989-9.176-1.709-9.82C105.428,154.002,87.499,150.374,92.837,163.822L92.837,163.822z"/>
	<path fill-rule="evenodd" clip-rule="evenodd" fill="#9DB1D4" d="M245.22,122.629c-0.426,7.684-1.065,16.863-1.492,24.547
		c-13.874-6.617-32.227-9.393-46.527-13.875c-2.346,1.279-2.992,2.562-5.338,3.628c17.286,19.422,42.042,29.664,65.519,41.189
		c11.956-24.543,22.198-70.427,15.154-79.607C258.668,98.299,247.353,104.49,245.22,122.629L245.22,122.629z"/>
	<path fill-rule="evenodd" clip-rule="evenodd" fill="#FF6766" d="M168.812,145.04c-2.346,1.706,0,4.907,2.566,3.415
		c2.345-1.279,4.69-2.563,7.044-3.842c4.478,3.842,9.389,6.191,14.933,4.268c12.382-5.121,5.978-19.422-2.346-16.646
		C183.325,134.581,176.068,139.492,168.812,145.04L168.812,145.04z"/>
	<path fill-rule="evenodd" clip-rule="evenodd" fill="#FF6766" d="M206.163,61.804c3.198,11.312,3.198,15.154-0.214,28.171
		c-2.984,8.11,10.029,6.404,15.794,0c2.771-2.985,4.691-7.47,4.691-12.805c-1.92-5.761-3.625-15.153-5.544-21.127
		C215.979,57.963,211.074,59.885,206.163,61.804L206.163,61.804z"/>
	<path fill-rule="evenodd" clip-rule="evenodd" fill="#FF6766" d="M188.45,31.714c0.64,7.253,1.706,13.657,3.412,18.992
		c8.963,27.958,34.572,26.465,36.711-5.547c7.684-0.64,13.654-13.658,5.979-16.22c2.345-23.05-24.338-26.892-36.072-19.422
		C189.943,13.358,188.45,21.895,188.45,31.714L188.45,31.714z"/>
	<path fill-rule="evenodd" clip-rule="evenodd" fill="#1E2432" d="M234.552,28.938c2.771-10.033,0-18.996-6.191-23.903
		c-28.602-21.771-60.615,24.543-39.91,26.679c13.228,0.213,22.624-10.246,30.308-7.897c4.265,1.066,5.331,9.389,5.331,17.712
		c0,2.563,3.419,2.989,3.632-0.853C227.934,34.912,229.64,28.085,234.552,28.938L234.552,28.938z"/>
	<path fill-rule="evenodd" clip-rule="evenodd" fill="#2E3647" d="M89.635,171.719c-30.947-5.551-29.881,26.035-3.415,29.021
		c38.2,5.338,76.408,10.677,114.818,15.794c0.213-3.838,0.64-7.896,1.066-11.941C164.547,193.695,127.196,182.601,89.635,171.719
		L89.635,171.719z"/>
	<path fill-rule="evenodd" clip-rule="evenodd" fill="#535C70" d="M154.731,226.355l34.358-21.764
		c20.059-11.528,30.095,21.338,3.198,21.971L154.731,226.355z"/>
</g>
</svg>
